# AST/ASF file generated using VICON BodyLanguage
# -----------------------------------------------
:version 1.10
:name VICON
:units
  mass 1.0
  length 0.45
  angle deg
:documentation
   .ast/.asf automatically generated from VICON data using
   VICON BodyBuilder and BodyLanguage model FoxedUp or BRILLIANT.MOD
:root
   order TX TY TZ RX RY RZ
   axis XYZ
   position 0 0 0  
   orientation 0 0 0 
:bonedata
  begin
     id 1 
     name lhipjoint
     direction 0.440178 -0.822639 0.359871 
     length 2.53113 
     axis 0 0 0  XYZ
  end
  begin
     id 2 
     name lfemur
     direction 0.34202 -0.939693 0  
     length 7.88132  
     axis 0 0 20  XYZ
    dof rx ry rz
    limits (-160.0 20.0)
           (-70.0 70.0)
           (-60.0 70.0)
  end
  begin
     id 3 
     name ltibia
     direction 0.34202 -0.939693 0   
     length 8.43783   
     axis 0 0 20   XYZ
    dof rx
    limits (-10.0 170.0)
  end
  begin
     id 4 
     name lfoot
     direction 0.0886351 -0.243523 0.965837   
     length 2.63414   
     axis -90 7.62852e-016 20   XYZ
    dof rx rz
    limits (-45.0 90.0)
           (-70.0 20.0)
  end
  begin
     id 5 
     name ltoes
     direction 1.53703e-011 -4.21717e-011 1   
     length 1.31427   
     axis -90 7.62852e-016 20   XYZ
    dof rx
    limits (-90.0 20.0)
  end
  begin
     id 6 
     name rhipjoint
     direction -0.399779 -0.839773 0.367367   
     length 2.47948  
     axis 0 0 0  XYZ 
  end
  begin
     id 7 
     name rfemur
     direction -0.34202 -0.939693 0   
     length 7.74806   
     axis 0 0 -20   XYZ
    dof rx ry rz
    limits (-160.0 20.0)
           (-70.0 70.0)
           (-70.0 60.0)
  end
  begin
     id 8 
     name rtibia
     direction -0.34202 -0.939693 0   
     length 8.74432   
     axis 0 0 -20   XYZ
    dof rx
    limits (-10.0 170.0)
 end
 begin
     id 9 
     name rfoot
     direction -0.108514 -0.298139 0.948334   
     length 2.66102  
     axis -90 -7.62852e-016 -20   XYZ
    dof rx rz
    limits (-45.0 90.0)
           (-20.0 70.0)
  end
  begin
     id 10 
     name rtoes
     direction -1.53392e-011 -4.22077e-011 1   
     length 1.31983   
     axis -90 -7.62852e-016 -20   XYZ
    dof rx
    limits (-90.0 20.0)
  end
  begin
     id 11 
     name lowerback
     direction 0.0113257 0.999866 0.0118602   
     length 2.58694   
     axis 0 0 0   XYZ
    dof rx ry rz
    limits (-20.0 45.0)
           (-30.0 30.0)
           (-30.0 30.0)
  end
  begin
     id 12 
     name upperback
     direction -0.0164747 0.995193 -0.0965375   
     length 2.52368   
     axis 0 0 0   XYZ
    dof rx ry rz
    limits (-20.0 45.0)
           (-30.0 30.0)
           (-30.0 30.0)
  end
  begin
     id 13 
     name thorax
     direction -0.0194301 0.99433 -0.104552   
     length 2.56099   
     axis 0 0 0   XYZ
    dof rx ry rz
    limits (-20.0 45.0)
           (-30.0 30.0)
           (-30.0 30.0)
  end
  begin
     id 14 
     name lowerneck
     direction 0.0148543 0.995587 -0.092657   
     length 1.71582   
     axis 0 0 0   XYZ
    dof rx ry rz
    limits (-20.0 45.0)
           (-30.0 30.0)
           (-30.0 30.0)
  end
  begin
     id 15 
     name upperneck
     direction -0.0135467 0.993656 -0.111639   
     length 1.68937   
     axis 0 0 0   XYZ
    dof rx ry rz
    limits (-20.0 45.0)
           (-30.0 30.0)
           (-30.0 30.0)
  end
  begin
     id 16
     name head
     direction -0.00615349 0.999547 -0.029448  
     length 1.7462  
     axis 0 0 0   XYZ
    dof rx ry rz
    limits (-20.0 45.0)
           (-30.0 30.0)
           (-30.0 30.0)
  end
  begin
     id 17 
     name lclavicle
     direction 0.988267 0.149885 0.0293713  
     length 4.47222  
     axis 0 0 0   XYZ
    dof ry rz
    limits (-20.0 10.0)
           (0.0 20.0)
  end
  begin
     id 18 
     name lhumerus
     direction 1 -4.48986e-011 -1.14833e-027   
     length 5.37148   
     axis 180 -30 -90   XYZ
    dof rx ry rz
    limits (-60.0 90.0)
           (-90.0 90.0)
           (-90.0 90.0)
  end
  begin
     id 19
     name lradius
     direction 0.999998 0.00170963 -0.000987055   
     length 3.94212   
     axis 180 -30 -90   XYZ
    dof rx
    limits (-10.0 170.0)
  end
  begin
     id 20
     name lwrist
     direction 0.999998 7.53149e-005 -0.00194706   
     length 1.97106   
     axis 4.65056e-015 90 90   XYZ
    dof ry
    limits (-180.0 0.0)
 end
  begin
     id 21 
     name lhand
     direction 1 -4.48973e-011 -1.31746e-026   
     length 1.17917   
     axis 8.4065e-015 90 90   XYZ
    dof rx rz
    limits (-90.0 90.0)
           (-45.0 45.0)
  end
  begin
     id 22 
     name lfingers
     direction 1 -4.49107e-011 -2.63492e-026   
     length 0.950679   
     axis 1.6813e-014 90 90   XYZ
    dof rx
    limits (0.0 90.0)
  end
  begin
     id 23
     name lthumb
     direction 0.707107 -6.35048e-011 0.707107   
     length 1.36499   
     axis -90 45 2.85299e-015   XYZ
    dof rx rz
    limits (-45.0 45.0)
           (-45.0 45.0)
  end
  begin
     id 24 
     name rclavicle
     direction -0.996699 0.0642895 -0.0495725   
     length 4.62611  
     axis 0 0 0   XYZ 
    dof ry rz
    limits (-10.0 20.0)
           (-20.0 0.0)
  end
  begin
     id 25 
     name rhumerus
     direction -1 -4.48919e-011 -2.41059e-027  
     length 5.4981   
     axis 180 30 90   XYZ
    dof rx ry rz
    limits (-90.0 60.0)
           (-90.0 90.0)
           (-90.0 90.0)
  end
  begin
     id 26 
     name rradius
     direction -0.999999 0.00118101 -0.000681858   
     length 3.48381   
     axis 180 30 90   XYZ
    dof rx
    limits (-10.0 170.0)
  end
  begin
     id 27 
     name rwrist
     direction -0.999999 0.000321823 -0.00132288   
     length 1.7419   
     axis 4.65056e-015 -90 -90   XYZ
    dof ry
    limits (-180.0 0.0)
  end
  begin
     id 28
     name rhand
     direction -1 -4.49022e-011 -1.31746e-026   
     length 1.34932   
     axis 8.4065e-015 -90 -90   XYZ
    dof rx rz
    limits (-90.0 90.0)
           (-45.0 45.0)
  end
  begin
     id 29
     name rfingers
     direction -1 -4.49178e-011 -2.63492e-026   
     length 1.08785   
     axis 1.6813e-014 -90 -90   XYZ
    dof rx
    limits (0.0 90.0)
  end
  begin
     id 30
     name rthumb
     direction -0.707107 -6.34713e-011 0.707107   
     length 1.56195   
     axis -90 -45 -2.85299e-015   XYZ
    dof rx rz
    limits (-45.0 45.0)
           (-45.0 45.0)
  end
:hierarchy
  begin
    root lhipjoint rhipjoint lowerback
    lhipjoint lfemur
    lfemur ltibia
    ltibia lfoot
    lfoot ltoes
    rhipjoint rfemur
    rfemur rtibia
    rtibia rfoot
    rfoot rtoes
    lowerback upperback
    upperback thorax
    thorax lowerneck lclavicle rclavicle
    lowerneck upperneck
    upperneck head
    lclavicle lhumerus
    lhumerus lradius
    lradius lwrist
    lwrist lhand lthumb
    lhand lfingers
    rclavicle rhumerus
    rhumerus rradius
    rradius rwrist
    rwrist rhand rthumb
    rhand rfingers
  end

#!OML:ASF X:\für Bonn\!DataBase\2005_08_10_Bjorn_Final\c3d\bjorn.ASF
:FULLY-SPECIFIED
:DEGREES
16
root -2.63397 19.0184 10.1774 -173.483 20.8858 181.991
lowerback 5.35642 2.70076 -8.88292
upperback 12.626 6.16744 -4.33123
thorax 10.3638 3.26169 0.601833
lowerneck -10.1148 1.03945 3.05218
upperneck -10.0697 1.8355 -4.53369
head -1.4067 1.27895 -1.9308
rclavicle 5.08889e-014 2.8625e-014
rhumerus -7.08521 16.8654 -95.9883
rradius 83.8492
rwrist 26.4749
rhand -37.0792 9.35753
rfingers 7.12502
rthumb -10.151 -20.3776
lclavicle 5.08889e-014 2.8625e-014
lhumerus -5.44427 -32.196 92.1448
lradius 47.7659
lwrist 62.7673
lhand -38.5603 10.3315
lfingers 7.12502
lthumb -11.5796 39.9916
rfemur 507.056 -175.197 -526.405
rtibia 37.5838
rfoot -11.8422 21.7808
rtoes -13.6196
lfemur 341.108 5.63468 344.89
ltibia 35.7735
lfoot -16.4334 3.12601
ltoes -20.1161
17
root -2.64728 19.0303 10.2461 -173.412 21.097 182.09
lowerback 5.41139 2.80868 -8.93192
upperback 12.6079 6.32053 -4.40569
thorax 10.3088 3.3432 0.546895
lowerneck -10.0527 1.05688 3.26715
upperneck -10.0424 1.83308 -4.54487
head -1.40693 1.26738 -1.97298
rclavicle 3.81667e-014 6.36111e-015
rhumerus -6.37141 17.1642 -95.8935
rradius 84.7308
rwrist 27.729
rhand -37.6714 9.0766
rfingers 7.12502
rthumb -10.7223 -20.6298
lclavicle 3.81667e-014 6.36111e-015
lhumerus -5.32842 -32.4116 92.2166
lradius 48.3825
lwrist 64.0541
lhand -39.8525 11.1902
lfingers 7.12502
lthumb -12.8256 40.7761
rfemur 507.724 -175.589 -526.451
rtibia 37.8878
rfoot -12.1662 21.6903
rtoes -13.6397
lfemur 340.916 5.46885 345.004
ltibia 35.6844
lfoot -16.1769 3.45072
ltoes -19.8797
18
root -2.65966 19.04 10.3127 -173.388 21.2956 182.141
lowerback 5.47298 2.90392 -9.02915
upperback 12.5762 6.44641 -4.4581
thorax 10.2294 3.40447 0.539118
lowerneck -10.0493 1.08823 3.40374
upperneck -9.93851 1.85315 -4.54007
head -1.37226 1.26661 -1.99361
rclavicle 7.15625e-015 -1.11319e-014
rhumerus -5.6112 17.5546 -95.7374
rradius 85.5319
rwrist 28.8595
rhand -38.3387 8.76442
rfingers 7.12502
rthumb -11.3659 -20.9076
lclavicle 7.15625e-015 -1.11319e-014
lhumerus -5.25811 -32.6389 92.352
lradius 49.0808
lwrist 64.9223
lhand -41.2274 12.0729
lfingers 7.12502
lthumb -14.1508 41.571
rfemur 508.459 -175.922 -526.536
rtibia 38.1932
rfoot -12.4928 21.6017
rtoes -13.7091
lfemur 340.755 5.31265 345.074
ltibia 35.6097
lfoot -15.9573 3.78225
ltoes -19.8462
19
root -2.67144 19.0474 10.3768 -173.412 21.474 182.162
lowerback 5.54755 3.00253 -9.09038
upperback 12.549 6.58518 -4.54595
thorax 10.1548 3.48047 0.473566
lowerneck -10.2288 1.12629 3.64547
upperneck -9.68876 1.86806 -4.54134
head -1.26 1.2561 -2.0311
rclavicle -4.92986e-014 7.4743e-014
rhumerus -4.70438 17.8769 -95.5927
rradius 86.2201
rwrist 29.8117
rhand -38.9285 8.52777
rfingers 7.12502
rthumb -11.9347 -21.112
lclavicle -4.92986e-014 7.4743e-014
lhumerus -5.17197 -33.0554 92.4225
lradius 49.859
lwrist 65.4682
lhand -42.6185 13.2309
lfingers 7.12502
lthumb -15.491 42.6302
rfemur 509.257 -176.117 -526.635
rtibia 38.4939
rfoot -12.8087 21.5756
rtoes -13.9066
lfemur 340.638 5.09566 345.122
ltibia 35.5514
lfoot -15.7697 4.12162
ltoes -19.8154
20
root -2.68219 19.0532 10.44 -173.452 21.6547 182.194
lowerback 5.61762 3.09838 -9.1367
upperback 12.506 6.70979 -4.61558
thorax 10.0631 3.54801 0.418172
lowerneck -10.4423 1.18007 3.90804
upperneck -9.39131 1.89626 -4.58356
head -1.12568 1.2505 -2.08497
rclavicle -4.29375e-014 -2.54444e-014
rhumerus -3.7388 18.243 -95.4026
rradius 86.8516
rwrist 30.6416
rhand -39.5276 8.31809
rfingers 7.12502
rthumb -12.5123 -21.2873
lclavicle -4.29375e-014 -2.54444e-014
lhumerus -5.09009 -33.4397 92.528
lradius 50.628
lwrist 65.7424
lhand -43.9253 14.4592
lfingers 7.12502
lthumb -16.7493 43.7566
rfemur 510.099 -176.276 -526.715
rtibia 38.7945
rfoot -13.1366 21.4961
rtoes -14.0471
lfemur 340.532 4.9133 345.193
ltibia 35.5223
lfoot -15.5683 4.4273
ltoes -19.7034
21
root -2.69176 19.0561 10.5003 -173.526 21.8507 182.215
lowerback 5.6776 3.19815 -9.16462
upperback 12.4599 6.8402 -4.69037
thorax 9.9755 3.62015 0.347895
lowerneck -10.6682 1.23488 4.16627
upperneck -9.06228 1.9232 -4.61688
head -0.979258 1.24357 -2.13526
rclavicle 3.4191e-014 6.83819e-014
rhumerus -2.67437 18.5941 -95.1917
rradius 87.4448
rwrist 31.315
rhand -40.1453 8.30802
rfingers 7.12502
rthumb -13.1078 -21.26
lclavicle 3.4191e-014 6.83819e-014
lhumerus -5.03322 -33.8596 92.622
lradius 51.5028
lwrist 65.8634
lhand -45.2188 15.5644
lfingers 7.12502
lthumb -17.9942 44.752
rfemur 511 -176.464 -526.824
rtibia 39.09
rfoot -13.4821 21.3025
rtoes -13.9185
lfemur 340.46 4.73555 345.256
ltibia 35.5253
lfoot -15.4308 4.73753
ltoes -19.702
22
root -2.70056 19.0564 10.5584 -173.628 22.0481 182.202
lowerback 5.72204 3.30205 -9.19632
upperback 12.4069 6.9768 -4.77053
thorax 9.88952 3.69492 0.274762
lowerneck -10.8764 1.28213 4.42627
upperneck -8.76351 1.94067 -4.65832
head -0.845677 1.23381 -2.19009
rclavicle 7.95139e-015 -2.22639e-014
rhumerus -1.57091 18.8964 -94.944
rradius 88.0208
rwrist 31.8408
rhand -40.8437 8.53438
rfingers 7.12502
rthumb -13.781 -20.9892
lclavicle 7.95139e-015 -2.22639e-014
lhumerus -4.9577 -34.3211 92.7133
lradius 52.3942
lwrist 65.7475
lhand -46.4782 16.374
lfingers 7.12502
lthumb -19.2056 45.4457
rfemur 511.941 -176.61 -526.964
rtibia 39.3833
rfoot -13.8181 21.0361
rtoes -13.6554
lfemur 340.393 4.60697 345.286
ltibia 35.566
lfoot -15.2943 5.02608
ltoes -19.7196
